<svg xmlns="http://www.w3.org/2000/svg" viewBox="0 0 98.67 74.48"><defs><style>.cls-1{fill:#4a5368;}.cls-2{fill:none;}</style></defs><title>Asset 9</title><g id="Layer_2" data-name="Layer 2"><g id="Layer_1-2" data-name="Layer 1"><path class="cls-1" d="M40.71,57.51a75.42,75.42,0,0,1-3-8.19c-1.36.14-2.72.29-4,.47C16.32,52.12,8.51,57.69,15,62.62a47.26,47.26,0,0,0,5.46,3.6,56,56,0,0,0,6.46,3.11,18.35,18.35,0,0,1-2.17-1c-6.84-3.89-1.07-8.56,12.88-10.44,1-.13,2-.25,3.07-.35"/><path class="cls-1" d="M36.14,43.62a89.47,89.47,0,0,1-1.69-9.32c-1.73.16-3.45.36-5.13.59C10.8,37.38.89,42.81,3.27,48.19c.44.88,1,2.08,1.47,2.93a34.71,34.71,0,0,0,4,5.59l.64.72c-4.77-5.24,4.1-10.84,22.23-13.28,1.51-.21,3-.38,4.57-.53"/><path class="cls-1" d="M33.88,28.23c-.09-1.58-.14-3.15-.14-4.71s.06-3.05.15-4.47c-1.79.17-3.56.37-5.31.61C12.09,21.87,2.18,26.34,1.27,31.09,1.05,32.68.83,34.8.76,36.4s.26,3.72.49,5.3c-1-5.27,9.18-10.42,27.31-12.86,1.75-.23,3.52-.44,5.32-.61"/><path class="cls-1" d="M34.48,13.9a34.34,34.34,0,0,1,1.73-6.62c-1.54.15-3.07.32-4.57.52-11.5,1.55-19.27,4.37-22.2,7.56-.67.79-1.58,1.82-2.2,2.64a33.08,33.08,0,0,0-3.53,5.75l-.4.85c4.15-7.06,21.31-9.74,31.17-10.7"/><path class="cls-1" d="M37.77,4a10.64,10.64,0,0,1,3-3.38c-1,.1-2.05.21-3.06.35A47.83,47.83,0,0,0,27.41,3.4l-1.76.72a57.72,57.72,0,0,0-7.53,4c-.89.62-2.1,1.42-3,2.08,3.2-2.4,9.61-4.48,18.56-5.68C35,4.32,36.4,4.17,37.77,4"/><path class="cls-2" d="M69.63,71.19c-1.14.38-2.5.81-3.58,1.09-1.23.31-2.87.73-4.12,1-.6.11-1.4.27-2,.36-1.07.17-2.49.39-3.57.49l-1.64.16-1.51.11-1.48.07c-.85,0-2,0-2.84,0-1.25,0-2.12,0-2.83-.09-1.32-.06-3.21-.22-4.49-.38l-1.62-.22-1.74-.28c-.53-.09-1.24-.24-1.77-.34-1-.19-3-.66-4.41-1.07s-3.3-1-4.7-1.55c-1-.38-2.34-.93-3.32-1.39-1.31-.61-3-1.46-4.29-2.18C18.08,66,16,64.66,14.47,63.55a38.91,38.91,0,0,1-3.69-3.11,33.21,33.21,0,0,1-2.84-3C7.36,56.74,6.55,55.8,6,55a30.93,30.93,0,0,1-2-3.16,52.15,52.15,0,0,1-2.47-5.5A19.32,19.32,0,0,1,.58,43,40.28,40.28,0,0,1,0,37.16a32.69,32.69,0,0,1,.65-6,22.93,22.93,0,0,1,.94-3.36c.34-.84.74-2,1.12-2.79.46-1,1.12-2.24,1.67-3.16s1.14-1.8,1.69-2.54c.67-.9,1.64-2,2.35-2.91a29.9,29.9,0,0,1,2.86-2.88A50.63,50.63,0,0,1,16.11,9.7C17.21,9,18.72,8,19.87,7.36c.76-.44,1.81-1,2.58-1.36A42.72,42.72,0,0,1,27,4c.65-.24,1.51-.57,2.17-.77,1.3-.41,3-1,4.37-1.29A62.27,62.27,0,0,1,39.84.69C40.58.58,41.56.45,42.3.38c1.53-.16,2.07-.2,3.15-.27.26,0,1.11-.06,2.28-.09"/><path class="cls-2" d="M49.39,2.62C60.76,1.09,71.12,3.05,79,7.5c.94,0,1.9,1.12,2.69,1.64s1.8,1.27,2.57,1.81,1.71,1.36,2.43,2c1,.83,2.18,2.05,3.07,3,.64.68,1.44,1.64,2,2.36A37.91,37.91,0,0,1,94,21.45a30,30,0,0,1,1.48,2.66c.48,1,1.07,2.31,1.44,3.34a26.86,26.86,0,0,1,1,3.39c.19.88.42,2.06.52,3a24.38,24.38,0,0,1,.22,3.52c-.09,1.81-.36,4.21-.65,6a22.49,22.49,0,0,1-.83,3c-.28.85-.71,2-1.08,2.8a27.84,27.84,0,0,1-1.66,3.21c-1,1.53-2.4,3.53-3.54,5a34.83,34.83,0,0,1-2.63,2.8c-.67.65-1.59,1.49-2.32,2.08a40.8,40.8,0,0,1-3.32,2.52c-1.23.8-2.88,1.88-4.18,2.59-1.46.8-3.48,1.76-5,2.43-1,.42-2.27.92-3.26,1.26l-.56.19"/><path class="cls-2" d="M79,7.5C71.12,3.05,60.76,1.09,49.39,2.62"/><path class="cls-2" d="M72,4.2c.81.31,1.86.77,2.65,1.11,1.32.59,3,1.5,4.29,2.19"/><path class="cls-2" d="M66.37,2.31c.79.21,1.82.54,2.6.79s2.14.74,3,1.1"/><path class="cls-2" d="M62.33,1.33c1.22.27,2.84.66,4,1"/><path class="cls-2" d="M61.3,1.12l1,.21"/><path class="cls-2" d="M58.72.69,60.45,1l.85.15"/><path class="cls-2" d="M57.1.47l1.62.22"/><path class="cls-2" d="M47.73,0h.63C48.9,0,50,0,51.19,0c.42,0,1.53.05,2.87.15.47,0,1.59.12,3,.29"/><path d="M64.56,72.26c-.92.16-1.88.31-2.89.45C49,74.41,34,73.23,26.16,70.09A56.58,56.58,0,0,1,19.71,67a45.28,45.28,0,0,1-5.46-3.6,14.18,14.18,0,0,0,1.54,1c9.07,5.15,31.42,7.31,49.92,4.82,1.33-.18,2.61-.37,3.83-.59a16.38,16.38,0,0,1-5,3.64"/><path d="M72.09,65.24c-1.37.25-2.81.47-4.31.67-20.82,2.8-46,.37-56.18-5.43a12.49,12.49,0,0,1-3-2.29l-.63-.72a34.58,34.58,0,0,1-4-5.59c-.44-.87-1.07-2-1.47-2.92C3.13,50.37,4.6,51.78,7,53.13c11.47,6.51,39.71,9.24,63.08,6.1,1.69-.23,3.31-.48,4.85-.75a25.87,25.87,0,0,1-2.82,6.76"/><path d="M75.87,53.28c-1.6.28-3.28.54-5,.78-24.24,3.26-53.53.43-65.41-6.33C2.43,46,.82,44.24.49,42.46c-.21-1.58-.43-3.7-.49-5.3.09-1.6.27-3.72.51-5.31-.43,2.24,1.13,4.54,4.93,6.7,11.89,6.75,41.18,9.59,65.42,6.33,1.75-.24,3.43-.5,5-.78a46,46,0,0,1,.23,4.69,43.16,43.16,0,0,1-.24,4.49"/><path d="M75,38.08C40,43.73-1.23,36.48,2.55,25.36l.4-.85a33.75,33.75,0,0,1,3.52-5.75C7.13,18,8,16.89,8.68,16.12c-2.38,2.59-1.58,5.42,3,8,10.2,5.8,35.36,8.23,56.18,5.43,1.5-.2,2.94-.43,4.31-.67A58.14,58.14,0,0,1,75,38.08"/><path d="M69.63,23.33q-1.83.33-3.84.6C47.3,26.41,25,24.25,15.88,19.1c-4.68-2.66-4.91-5.6-1.49-8.16.89-.63,2.06-1.48,3-2.07a57.71,57.71,0,0,1,7.52-4l1.77-.72c-6,2.26-7.31,5.35-2.55,8.05C31,16.1,47.82,17.73,61.78,15.86c1-.14,2-.29,2.89-.45a57.17,57.17,0,0,1,5,7.92"/></g></g></svg>